<?xml version="1.0" ?><svg id="Layer_1" style="enable-background:new 0 0 24 24; fill:orange;" version="1.1" viewBox="0 0 24 24" xml:space="preserve" xmlns="http://www.w3.org/2000/svg" xmlns:xlink="http://www.w3.org/1999/xlink"><path d="M21.302,9.025l-5.843-0.556l-2.598-5.597c-0.158-0.339-0.487-0.55-0.861-0.55s-0.704,0.211-0.861,0.55L8.541,8.468  L2.699,9.025C2.331,9.059,2.023,9.297,1.896,9.644c-0.127,0.348-0.044,0.728,0.216,0.992l4.291,4.354l-1.032,5.548  c-0.066,0.354,0.071,0.71,0.357,0.928c0.287,0.219,0.666,0.258,0.99,0.1L12,19.004l5.281,2.577c0.133,0.065,0.276,0.097,0.418,0.097  c0.203,0,0.404-0.066,0.573-0.195c0.287-0.218,0.425-0.574,0.359-0.929l-1.033-5.569l4.29-4.35c0.26-0.264,0.343-0.643,0.216-0.991  C21.977,9.297,21.67,9.059,21.302,9.025z M16.748,14.496c-0.109,0.11-0.157,0.267-0.129,0.42l1.078,5.812l-5.489-2.679  c-0.066-0.032-0.137-0.048-0.208-0.048c-0.071,0-0.142,0.016-0.207,0.048l-5.49,2.663l1.078-5.792  c0.029-0.152-0.019-0.309-0.128-0.42L2.788,9.97l6.114-0.582c0.168-0.016,0.314-0.12,0.386-0.273l2.711-5.847l0.002,0.003h0  l2.712,5.844c0.071,0.153,0.218,0.257,0.386,0.273l6.114,0.582L16.748,14.496z"/></svg>