<?xml version="1.0" ?><svg id="Layer_1" style="enable-background:new 0 0 24 24; fill:red;" version="1.1" viewBox="0 0 24 24" xml:space="preserve" xmlns="http://www.w3.org/2000/svg" xmlns:xlink="http://www.w3.org/1999/xlink"><path d="M19.123,3.096H4.877c-1.403,0-2.544,1.141-2.544,2.544v9.158c0,1.403,1.141,2.544,2.544,2.544h5.01l-0.363,2.544H8.439  c-0.281,0-0.509,0.228-0.509,0.509s0.228,0.509,0.509,0.509h1.526h4.07h1.526c0.281,0,0.509-0.228,0.509-0.509  s-0.228-0.509-0.509-0.509h-1.085l-0.363-2.544h5.01c1.403,0,2.544-1.141,2.544-2.544V5.64C21.667,4.238,20.525,3.096,19.123,3.096z   M10.552,19.886l0.363-2.544h2.17l0.363,2.544H10.552z M20.649,14.798c0,0.842-0.685,1.526-1.526,1.526h-5.596h-3.053H4.877  c-0.842,0-1.526-0.685-1.526-1.526v-0.509h17.298V14.798z M20.649,13.272H3.351V5.64c0-0.842,0.685-1.526,1.526-1.526h14.246  c0.842,0,1.526,0.685,1.526,1.526V13.272z"/></svg>